<?xml version="1.0" encoding="utf-8"?>
<svg width="456" height="456" viewBox="0 0 456 456" version="1.1" xmlns="http://www.w3.org/2000/svg" xmlns:bx="https://boxy-svg.com">
  <g id="fundamentals/css/calc" stroke="none" stroke-width="1" fill="none" fill-rule="evenodd" style="" transform="matrix(1, 0, 0, 1, 29.217148, 31.023811)">
    <g id="container" transform="matrix(1, 0, 0, 1, 2, 2)" fill-rule="nonzero">
      <rect id="mask" stroke="#333832" stroke-width="2" x="-4.929" y="-4.929" width="350" height="350" rx="21.714" ry="21.714" style="fill: rgb(147, 138, 138);" transform="matrix(1, 0, 0.000212, 1, 30.923023, 34.929432)"/>
      <g id="calculator" transform="translate(16.000000, 11.000000)">
        <rect id="Rectangle-path" fill="#C9C9BA" x="0.413043478" y="0" width="37.173913" height="46.2608696" transform="matrix(0, 0, 0, 9.295112609863281, 0.41304343938827515, 0)"/>
        <rect id="Rectangle-path" fill="#98A5A8" x="45.891" y="53.13" width="270" height="60"/>
        <rect id="Rectangle-path" fill="#F29C1F" x="263.674" y="201.5" width="60" height="120"/>
        <path d="M 312.77 67.72 C 312.262 66.323 311.287 65.209 310.065 64.627 C 308.842 64.054 307.462 64.054 306.245 64.627 C 305.628 64.918 305.077 65.34 304.611 65.873 L 299.618 71.581 C 297.663 73.816 297.663 77.427 299.618 79.663 C 300.592 80.776 301.875 81.337 303.153 81.337 L 303.153 98.482 C 303.153 101.644 305.392 104.197 308.152 104.197 C 310.912 104.197 313.151 101.644 313.151 98.482 L 313.151 69.907 C 313.151 69.16 313.018 68.419 312.77 67.72 Z" id="Shape" fill="#49686D"/>
        <path d="M 284.732 69.004 C 284.224 67.607 283.249 66.493 282.027 65.911 C 280.804 65.338 279.424 65.338 278.207 65.911 C 277.59 66.202 277.039 66.624 276.573 67.157 L 271.58 72.865 C 269.625 75.1 269.625 78.711 271.58 80.947 C 272.554 82.06 273.837 82.621 275.115 82.621 L 275.115 99.766 C 275.115 102.928 277.354 105.481 280.114 105.481 C 282.874 105.481 285.113 102.928 285.113 99.766 L 285.113 71.191 C 285.113 70.444 284.98 69.703 284.732 69.004 Z" id="path-1" fill="#49686D"/>
      </g>
      <rect id="rect-2" fill="#575C55" x="207.763" y="146.06" width="60" height="60" bx:origin="0.869 8.71"/>
      <rect id="rect-3" fill="#575C55" x="207.593" y="210.524" width="60" height="60" bx:origin="0.869 8.71"/>
      <rect id="rect-4" fill="#575C55" x="207.593" y="278.408" width="60" height="60" bx:origin="0.869 8.71"/>
      <rect id="rect-5" x="278.617" y="143.688" width="60" height="60" style="fill: rgb(254, 255, 253);" bx:origin="0.869 8.71"/>
      <rect id="rect-6" fill="#575C55" x="134.64" y="146.549" width="60" height="60" bx:origin="0.869 8.71"/>
      <rect id="rect-7" fill="#575C55" x="134.46" y="212.105" width="60" height="60" bx:origin="0.869 8.71"/>
      <rect id="rect-8" fill="#575C55" x="63.46" y="213.105" width="60" height="60" bx:origin="0.869 8.71"/>
      <rect id="rect-9" fill="#575C55" x="63.5" y="280.468" width="60" height="60" bx:origin="0.869 8.71"/>
      <rect id="rect-10" fill="#575C55" x="133.351" y="279.165" width="60" height="60" bx:origin="0.869 8.71"/>
      <rect id="rect-1" fill="#575C55" x="62.5" y="146.943" width="60" height="60" bx:origin="0.869 8.71"/>
    </g>
  </g>
</svg>